<svg id="eZqE0KPsylT1" xmlns="http://www.w3.org/2000/svg" xmlns:xlink="http://www.w3.org/1999/xlink" viewBox="0 0 1920 1080" shape-rendering="geometricPrecision" text-rendering="geometricPrecision" project-id="6548d77d10e546a69466c3e517593f3f" export-id="447cea67fd7e4b7490d906fd1bc552a9" cached="false"><line x1="-6.322894" y1="-44.26026" x2="6.322895" y2="44.26026" transform="translate(915.947536 813.081915)" fill="none" stroke="#3f5787" stroke-width="3"/><line x1="114.865914" y1="-22.13013" x2="-114.865913" y2="22.13013" transform="translate(794.758729 790.951785)" fill="none" stroke="#3f5787" stroke-width="3"/><line x1="0" y1="11.065065" x2="0" y2="-11.065065" transform="translate(679.892816 802.01685)" fill="none" stroke="#3f5787" stroke-width="3"/><line x1="31.614472" y1="-5.532533" x2="-31.614472" y2="5.532533" transform="translate(648.278344 796.484318)" fill="none" stroke="#3f5787" stroke-width="3"/><line x1="-16.861052" y1="-105.118118" x2="16.861051" y2="105.118118" transform="translate(599.802821 696.898733)" fill="none" stroke="#3f5787" stroke-width="3"/><line x1="-144.372753" y1="32.668288" x2="144.372753" y2="-32.668288" transform="translate(727.314522 559.112328)" fill="none" stroke="#3f5787" stroke-width="3"/><line x1="0" y1="8.430526" x2="0" y2="-8.430525" transform="translate(871.687275 518.013514)" fill="none" stroke="#3f5787" stroke-width="3"/><line x1="-184.41775" y1="31.614472" x2="184.417751" y2="-31.614471" transform="translate(1056.105026 477.968517)" fill="none" stroke="#3f5787" stroke-width="3"/><line x1="-4.215263" y1="-35.829734" x2="4.215262" y2="35.829734" transform="translate(1244.73804 482.18378)" fill="none" stroke="#3f5787" stroke-width="3"/><line x1="-37.937365" y1="-94.843414" x2="37.937366" y2="94.843415" transform="translate(1286.890667 612.856929)" fill="none" stroke="#3f5787" stroke-width="3"/><line x1="32.668287" y1="-47.158253" x2="-32.668287" y2="47.158254" transform="translate(1292.159746 754.858598)" fill="none" stroke="#3f5787" stroke-width="3"/><line x1="-168.610514" y1="27.662662" x2="168.610514" y2="-27.662662" transform="translate(1090.880945 829.679514)" fill="none" stroke="#3f5787" stroke-width="3"/></svg>

